<svg width="12" height="10" viewBox="0 0 12 10" fill="none" xmlns="http://www.w3.org/2000/svg">
<path d="M3.5 0C2.70897 0 2.0395 0.528008 1.82373 1.25H0.5C0.224 1.25 0 1.474 0 1.75C0 2.026 0.224 2.25 0.5 2.25H1.82373C2.0395 2.97199 2.70897 3.5 3.5 3.5C4.29103 3.5 4.9605 2.97199 5.17627 2.25H11.5C11.776 2.25 12 2.026 12 1.75C12 1.474 11.776 1.25 11.5 1.25H5.17627C4.9605 0.528008 4.29103 0 3.5 0ZM3.5 1C3.9135 1 4.25 1.3365 4.25 1.75C4.25 2.1635 3.9135 2.5 3.5 2.5C3.0865 2.5 2.75 2.1635 2.75 1.75C2.75 1.3365 3.0865 1 3.5 1ZM8.5 6.5C7.70897 6.5 7.0395 7.02801 6.82373 7.75H0.5C0.224 7.75 0 7.974 0 8.25C0 8.526 0.224 8.75 0.5 8.75H6.82373C7.0395 9.47199 7.70897 10 8.5 10C9.29103 10 9.9605 9.47199 10.1763 8.75H11.5C11.776 8.75 12 8.526 12 8.25C12 7.974 11.776 7.75 11.5 7.75H10.1763C9.9605 7.02801 9.29103 6.5 8.5 6.5ZM8.5 7.5C8.9135 7.5 9.25 7.8365 9.25 8.25C9.25 8.6635 8.9135 9 8.5 9C8.0865 9 7.75 8.6635 7.75 8.25C7.75 7.8365 8.0865 7.5 8.5 7.5Z" fill="#303133"/>
</svg>
