<svg width="13" height="12" viewBox="0 0 13 12" fill="none" xmlns="http://www.w3.org/2000/svg">
<path d="M2.66606 4.96016e-05C2.58511 0.00136507 2.50553 0.0210887 2.43334 0.0577258C2.36115 0.0943629 2.29824 0.146952 2.24939 0.211508L0.163975 2.29692C0.112789 2.34607 0.0719244 2.40493 0.0437729 2.47007C0.0156214 2.5352 0.000749251 2.6053 2.75879e-05 2.67625C-0.000694075 2.74721 0.0127492 2.81759 0.0395701 2.88329C0.066391 2.94898 0.10605 3.00867 0.156225 3.05884C0.206401 3.10902 0.266083 3.14867 0.331777 3.1755C0.397471 3.20232 0.467857 3.21576 0.538811 3.21504C0.609766 3.21432 0.679864 3.19944 0.744999 3.17129C0.810134 3.14314 0.868997 3.10228 0.918141 3.05109L2.14106 1.82817V6.94067C2.14006 7.01135 2.15312 7.08151 2.17947 7.1471C2.20582 7.21268 2.24495 7.27237 2.29457 7.3227C2.3442 7.37303 2.40333 7.413 2.46853 7.44028C2.53374 7.46756 2.60371 7.4816 2.67439 7.4816C2.74507 7.4816 2.81505 7.46756 2.88025 7.44028C2.94545 7.413 3.00459 7.37303 3.05421 7.3227C3.10383 7.27237 3.14296 7.21268 3.16931 7.1471C3.19567 7.08151 3.20872 7.01135 3.20772 6.94067V1.82817L4.43064 3.05109C4.47979 3.10228 4.53865 3.14314 4.60378 3.17129C4.66892 3.19945 4.73902 3.21432 4.80997 3.21504C4.88093 3.21576 4.95131 3.20232 5.01701 3.1755C5.0827 3.14868 5.14238 3.10902 5.19256 3.05884C5.24274 3.00867 5.28239 2.94898 5.30922 2.88329C5.33604 2.8176 5.34948 2.74721 5.34876 2.67625C5.34804 2.6053 5.33316 2.5352 5.30501 2.47007C5.27686 2.40493 5.23599 2.34607 5.18481 2.29692L3.09627 0.208383C3.0457 0.142586 2.98049 0.0894936 2.90581 0.0533272C2.83112 0.0171608 2.74903 -0.00108194 2.66606 4.96016e-05ZM10.1411 0.00734127C9.99961 0.00734127 9.86395 0.0635317 9.76394 0.163551C9.66392 0.26357 9.60773 0.399226 9.60773 0.540675C9.60773 0.682123 9.66392 0.817779 9.76394 0.917798C9.86395 1.01782 9.99961 1.07401 10.1411 1.07401C10.2825 1.07401 10.4182 1.01782 10.5182 0.917798C10.6182 0.817779 10.6744 0.682123 10.6744 0.540675C10.6744 0.399226 10.6182 0.26357 10.5182 0.163551C10.4182 0.0635317 10.2825 0.00734127 10.1411 0.00734127ZM10.1411 2.14067C9.99961 2.14067 9.86395 2.19686 9.76394 2.29688C9.66392 2.3969 9.60773 2.53256 9.60773 2.67401C9.60773 2.81546 9.66392 2.95111 9.76394 3.05113C9.86395 3.15115 9.99961 3.20734 10.1411 3.20734C10.2825 3.20734 10.4182 3.15115 10.5182 3.05113C10.6182 2.95111 10.6744 2.81546 10.6744 2.67401C10.6744 2.53256 10.6182 2.3969 10.5182 2.29688C10.4182 2.19686 10.2825 2.14067 10.1411 2.14067ZM10.1327 4.26672C9.99146 4.26892 9.85684 4.32709 9.75841 4.42845C9.65998 4.5298 9.60579 4.66607 9.60773 4.80734V9.91984L8.38481 8.69692C8.33511 8.64583 8.27567 8.60522 8.21001 8.57749C8.14435 8.54976 8.07379 8.53547 8.00252 8.53547C7.89642 8.53549 7.79274 8.56716 7.70473 8.62642C7.61673 8.68568 7.5484 8.76984 7.50847 8.86814C7.46855 8.96644 7.45885 9.07442 7.48061 9.17826C7.50237 9.2821 7.55461 9.37709 7.63064 9.45109L9.7171 11.5375C9.76674 11.6027 9.83071 11.6555 9.90405 11.6919C9.97739 11.7284 10.0581 11.7474 10.14 11.7476C10.2219 11.7478 10.3028 11.7292 10.3763 11.6931C10.4498 11.657 10.514 11.6045 10.564 11.5396C10.5647 11.5386 10.5654 11.5376 10.5661 11.5365L12.6515 9.45109C12.7027 9.40195 12.7435 9.34308 12.7717 9.27795C12.7998 9.21281 12.8147 9.14271 12.8154 9.07176C12.8162 9.0008 12.8027 8.93042 12.7759 8.86472C12.7491 8.79903 12.7094 8.73935 12.6592 8.68917C12.6091 8.63899 12.5494 8.59934 12.4837 8.57251C12.418 8.54569 12.3476 8.53225 12.2766 8.53297C12.2057 8.53369 12.1356 8.54857 12.0705 8.57672C12.0053 8.60487 11.9465 8.64574 11.8973 8.69692L10.6744 9.91984V4.80734C10.6754 4.73599 10.662 4.66516 10.6351 4.59906C10.6082 4.53296 10.5684 4.47292 10.5179 4.42251C10.4673 4.3721 10.4072 4.33234 10.3411 4.30558C10.2749 4.27882 10.2041 4.2656 10.1327 4.26672ZM2.67439 8.54067C2.53294 8.54067 2.39729 8.59686 2.29727 8.69688C2.19725 8.7969 2.14106 8.93256 2.14106 9.07401C2.14106 9.21546 2.19725 9.35111 2.29727 9.45113C2.39729 9.55115 2.53294 9.60734 2.67439 9.60734C2.81584 9.60734 2.9515 9.55115 3.05151 9.45113C3.15153 9.35111 3.20772 9.21546 3.20772 9.07401C3.20772 8.93256 3.15153 8.7969 3.05151 8.69688C2.9515 8.59686 2.81584 8.54067 2.67439 8.54067ZM2.67439 10.674C2.53294 10.674 2.39729 10.7302 2.29727 10.8302C2.19725 10.9302 2.14106 11.0659 2.14106 11.2073C2.14106 11.3488 2.19725 11.4844 2.29727 11.5845C2.39729 11.6845 2.53294 11.7407 2.67439 11.7407C2.81584 11.7407 2.9515 11.6845 3.05151 11.5845C3.15153 11.4844 3.20772 11.3488 3.20772 11.2073C3.20772 11.0659 3.15153 10.9302 3.05151 10.8302C2.9515 10.7302 2.81584 10.674 2.67439 10.674Z" fill="#C4512B"/>
</svg>
