<svg width="12" height="12" viewBox="0 0 12 12" fill="none" xmlns="http://www.w3.org/2000/svg">
<g clip-path="url(#clip0_881_4584)">
<path d="M6.75098 1.03418C6.97563 1.06765 7.175 1.19852 7.29492 1.3916L7.34766 1.49316L8.39551 3.91113L11.0283 4.18066C11.3349 4.21214 11.5942 4.423 11.6875 4.71777L11.7139 4.8291C11.756 5.09071 11.6613 5.35865 11.457 5.53613L11.458 5.53711L9.47461 7.26074L10.0205 9.89355L10.0352 10.0078C10.048 10.2354 9.95936 10.4568 9.79395 10.6133L9.70508 10.6865C9.57247 10.7789 9.41717 10.8262 9.26172 10.8262C9.12006 10.8262 8.97809 10.787 8.85254 10.709L6.63672 9.33008L4.4209 10.709C4.15744 10.8727 3.82208 10.8635 3.56836 10.6865C3.31467 10.5094 3.18914 10.1971 3.25293 9.89258L3.79785 7.26074L1.81543 5.53711C1.58207 5.33432 1.49252 5.01204 1.58594 4.71777C1.67928 4.42298 1.93848 4.2121 2.24512 4.18066L4.87695 3.91113L5.92578 1.49316C6.04843 1.20943 6.32796 1.02539 6.63672 1.02539L6.75098 1.03418Z" fill="#FFE86B" stroke="#D4AB2E" stroke-width="0.8"/>
<path fill-rule="evenodd" clip-rule="evenodd" d="M6.63664 1.42578C6.78589 1.42584 6.92108 1.51455 6.98039 1.65137L8.12199 4.28613L10.9872 4.5791C11.1358 4.59435 11.2616 4.69643 11.3066 4.83887C11.3516 4.98114 11.3078 5.13635 11.1952 5.23438L9.03606 7.11328L9.62883 9.97461C9.65938 10.1214 9.59938 10.2725 9.47648 10.3584C9.41221 10.4032 9.33678 10.4258 9.26164 10.4258C9.19304 10.4258 9.12432 10.407 9.0634 10.3691L6.63664 8.85938L4.20988 10.3691C4.08238 10.4485 3.91961 10.4441 3.7968 10.3584C3.67385 10.2725 3.61371 10.1214 3.64445 9.97461L4.23723 7.11328L2.07805 5.23438C1.96536 5.13634 1.92164 4.98105 1.96672 4.83887C2.01172 4.69637 2.13737 4.59429 2.28606 4.5791L5.15129 4.28613L6.29289 1.65137C6.35225 1.51457 6.48737 1.42578 6.63664 1.42578Z" fill="white"/>
</g>
<defs>
<clipPath id="clip0_881_4584">
<rect width="12" height="12" fill="white"/>
</clipPath>
</defs>
</svg>
