<svg width="11" height="11" viewBox="0 0 11 11" fill="none" xmlns="http://www.w3.org/2000/svg">
<path d="M5.60181 0.408203C5.82646 0.441671 6.02583 0.572542 6.14575 0.765625L6.19849 0.867188L7.24634 3.28516L9.87915 3.55469C10.1858 3.58617 10.445 3.79702 10.5383 4.0918L10.5647 4.20312C10.6068 4.46474 10.5121 4.73268 10.3079 4.91016L10.3088 4.91113L8.32544 6.63477L8.87134 9.26758L8.88599 9.38184C8.8988 9.60939 8.8102 9.83086 8.64478 9.9873L8.55591 10.0605C8.42331 10.1529 8.26801 10.2002 8.11255 10.2002C7.97089 10.2002 7.82892 10.161 7.70337 10.083L5.48755 8.7041L3.27173 10.083C3.00827 10.2468 2.67291 10.2375 2.41919 10.0605C2.1655 9.88343 2.03997 9.57116 2.10376 9.2666L2.64868 6.63477L0.66626 4.91113C0.432899 4.70834 0.34335 4.38606 0.436768 4.0918C0.530105 3.797 0.789309 3.58613 1.09595 3.55469L3.72778 3.28516L4.77661 0.867188C4.89926 0.583454 5.17879 0.399414 5.48755 0.399414L5.60181 0.408203Z" fill="#FFE86B" stroke="#D4AB2E" stroke-width="0.8"/>
</svg>
